<svg xmlns="http://www.w3.org/2000/svg" xmlns:xlink="http://www.w3.org/1999/xlink" width="500" zoomAndPan="magnify" viewBox="0 0 375 374.999991" height="500" preserveAspectRatio="xMidYMid meet" version="1.0"><defs><clipPath id="a7f3d3b5ed"><path d="M 93.617188 146.800781 L 281.382812 146.800781 L 281.382812 296.03125 L 93.617188 296.03125 Z M 93.617188 146.800781 " clip-rule="nonzero"/></clipPath><clipPath id="401f8ec389"><path d="M 30 81 L 344 81 L 344 296.5625 L 30 296.5625 Z M 30 81 " clip-rule="nonzero"/></clipPath><clipPath id="1587cf08e5"><path d="M 29.253906 78.753906 L 343.273438 78.753906 L 343.273438 297.800781 L 29.253906 297.800781 Z M 29.253906 78.753906 " clip-rule="nonzero"/></clipPath></defs><g clip-path="url(#a7f3d3b5ed)"><path fill="#f6f5f1" d="M 93.617188 146.800781 L 281.382812 146.800781 L 281.382812 296.425781 L 93.617188 296.425781 Z M 93.617188 146.800781 " fill-opacity="1" fill-rule="nonzero"/></g><g clip-path="url(#401f8ec389)"><path fill="#f6f5f1" d="M 172.242188 81.753906 C 169.789062 81.980469 167.34375 82.265625 164.90625 82.609375 C 162.46875 82.953125 160.039062 83.351562 157.621094 83.808594 C 155.199219 84.265625 152.792969 84.78125 150.398438 85.351562 C 148 85.921875 145.621094 86.550781 143.253906 87.234375 C 140.890625 87.914062 138.542969 88.652344 136.210938 89.449219 C 133.878906 90.242188 131.566406 91.089844 129.277344 91.992188 C 126.984375 92.898438 124.71875 93.851562 122.472656 94.863281 C 120.226562 95.875 118.003906 96.9375 115.808594 98.050781 C 113.613281 99.164062 111.445312 100.332031 109.304688 101.546875 C 107.164062 102.765625 105.054688 104.03125 102.972656 105.347656 C 100.890625 106.664062 98.84375 108.03125 96.828125 109.441406 C 94.808594 110.855469 92.828125 112.316406 90.878906 113.824219 C 88.933594 115.328125 87.019531 116.882812 85.144531 118.480469 C 83.273438 120.074219 81.4375 121.714844 79.640625 123.398438 C 77.839844 125.082031 76.085938 126.808594 74.371094 128.574219 C 72.652344 130.339844 70.980469 132.144531 69.351562 133.992188 C 67.71875 135.835938 66.132812 137.71875 64.589844 139.640625 C 63.050781 141.558594 61.554688 143.515625 60.105469 145.503906 C 58.65625 147.496094 57.253906 149.519531 55.898438 151.578125 C 54.542969 153.632812 53.238281 155.71875 51.984375 157.839844 C 50.726562 159.957031 49.523438 162.105469 48.367188 164.277344 C 47.214844 166.453125 46.113281 168.65625 45.0625 170.882812 C 44.011719 173.109375 43.011719 175.359375 42.070312 177.632812 C 41.125 179.910156 40.234375 182.203125 39.398438 184.519531 C 38.5625 186.835938 37.78125 189.171875 37.054688 191.523438 C 36.328125 193.875 35.660156 196.246094 35.042969 198.628906 C 34.429688 201.015625 33.871094 203.414062 33.371094 205.824219 C 32.871094 208.234375 32.425781 210.65625 32.039062 213.085938 C 31.652344 215.519531 31.320312 217.960938 31.050781 220.40625 C 30.777344 222.855469 30.5625 225.304688 30.40625 227.765625 C 30.25 230.222656 30.152344 232.679688 30.113281 235.144531 C 30.074219 237.605469 30.089844 240.066406 30.167969 242.527344 C 30.242188 244.988281 30.375 247.449219 30.570312 249.902344 C 30.761719 252.359375 31.011719 254.808594 31.316406 257.25 C 31.625 259.695312 31.988281 262.128906 32.410156 264.554688 C 32.832031 266.980469 33.3125 269.394531 33.847656 271.796875 C 34.386719 274.203125 34.976562 276.589844 35.625 278.96875 C 36.277344 281.34375 36.980469 283.703125 37.738281 286.042969 C 38.5 288.386719 39.316406 290.707031 40.183594 293.011719 C 41.054688 295.316406 41.976562 297.597656 42.957031 299.859375 C 43.933594 302.117188 44.960938 304.355469 46.046875 306.566406 C 47.128906 308.777344 48.261719 310.964844 49.449219 313.121094 C 50.632812 315.28125 51.871094 317.410156 53.15625 319.507812 C 54.441406 321.609375 55.777344 323.675781 57.160156 325.714844 C 58.546875 327.75 59.976562 329.753906 61.453125 331.722656 C 62.933594 333.691406 64.457031 335.625 66.027344 337.523438 C 67.597656 339.421875 69.210938 341.28125 70.867188 343.101562 C 72.523438 344.921875 74.222656 346.703125 75.964844 348.445312 C 77.707031 350.1875 79.488281 351.886719 81.308594 353.542969 C 83.128906 355.199219 84.988281 356.8125 86.886719 358.382812 C 88.785156 359.953125 90.71875 361.476562 92.6875 362.953125 C 94.65625 364.433594 96.660156 365.863281 98.695312 367.25 C 100.734375 368.632812 102.800781 369.96875 104.902344 371.253906 C 107 372.539062 109.128906 373.777344 111.289062 374.960938 C 113.445312 376.148438 115.632812 377.28125 117.84375 378.363281 C 120.054688 379.445312 122.289062 380.476562 124.550781 381.453125 C 126.8125 382.433594 129.09375 383.355469 131.398438 384.226562 C 133.699219 385.09375 136.023438 385.910156 138.367188 386.667969 C 140.707031 387.429688 143.066406 388.132812 145.441406 388.78125 C 147.816406 389.433594 150.207031 390.023438 152.609375 390.5625 C 155.015625 391.097656 157.429688 391.574219 159.855469 392 C 162.28125 392.421875 164.714844 392.785156 167.160156 393.09375 C 169.601562 393.398438 172.050781 393.648438 174.507812 393.839844 C 176.960938 394.035156 179.417969 394.167969 181.882812 394.242188 C 184.34375 394.320312 186.804688 394.335938 189.265625 394.296875 C 191.726562 394.257812 194.1875 394.160156 196.644531 394.003906 C 199.101562 393.847656 201.554688 393.632812 204.003906 393.359375 C 206.449219 393.085938 208.890625 392.757812 211.320312 392.371094 C 213.753906 391.984375 216.175781 391.539062 218.585938 391.039062 C 220.996094 390.539062 223.394531 389.980469 225.78125 389.367188 C 228.164062 388.75 230.535156 388.082031 232.886719 387.355469 C 235.238281 386.628906 237.574219 385.847656 239.890625 385.011719 C 242.207031 384.175781 244.5 383.285156 246.777344 382.339844 C 249.050781 381.398438 251.300781 380.398438 253.527344 379.347656 C 255.753906 378.296875 257.957031 377.195312 260.132812 376.042969 C 262.304688 374.886719 264.453125 373.683594 266.570312 372.425781 C 268.6875 371.171875 270.777344 369.867188 272.832031 368.511719 C 274.890625 367.15625 276.914062 365.753906 278.90625 364.304688 C 280.894531 362.855469 282.851562 361.359375 284.769531 359.820312 C 286.691406 358.277344 288.574219 356.691406 290.417969 355.058594 C 292.265625 353.429688 294.070312 351.757812 295.835938 350.039062 C 297.601562 348.324219 299.328125 346.566406 301.011719 344.769531 C 302.695312 342.972656 304.335938 341.136719 305.929688 339.261719 C 307.527344 337.390625 309.078125 335.476562 310.585938 333.53125 C 312.09375 331.582031 313.554688 329.601562 314.964844 327.582031 C 316.378906 325.566406 317.746094 323.519531 319.0625 321.4375 C 320.378906 319.355469 321.644531 317.246094 322.863281 315.105469 C 324.078125 312.964844 325.246094 310.796875 326.359375 308.601562 C 327.472656 306.40625 328.535156 304.183594 329.546875 301.9375 C 330.554688 299.691406 331.511719 297.421875 332.417969 295.132812 C 333.320312 292.839844 334.167969 290.53125 334.960938 288.199219 C 335.753906 285.867188 336.496094 283.519531 337.175781 281.15625 C 337.859375 278.789062 338.488281 276.40625 339.058594 274.011719 C 339.628906 271.617188 340.144531 269.210938 340.601562 266.789062 C 341.058594 264.371094 341.457031 261.941406 341.800781 259.503906 C 342.144531 257.066406 342.429688 254.621094 342.65625 252.167969 C 342.910156 249.316406 343.089844 246.460938 343.1875 243.601562 C 343.285156 240.738281 343.304688 237.878906 343.246094 235.015625 C 343.191406 232.15625 343.054688 229.296875 342.839844 226.445312 C 342.625 223.589844 342.332031 220.742188 341.964844 217.90625 C 341.59375 215.066406 341.148438 212.242188 340.621094 209.425781 C 340.097656 206.613281 339.496094 203.816406 338.820312 201.035156 C 338.144531 198.253906 337.390625 195.496094 336.5625 192.753906 C 335.734375 190.015625 334.832031 187.300781 333.855469 184.609375 C 332.878906 181.917969 331.832031 179.257812 330.707031 176.625 C 329.585938 173.992188 328.394531 171.390625 327.128906 168.824219 C 325.863281 166.253906 324.53125 163.722656 323.128906 161.226562 C 321.726562 158.734375 320.257812 156.277344 318.71875 153.863281 C 317.183594 151.449219 315.582031 149.078125 313.914062 146.75 C 312.25 144.425781 310.519531 142.144531 308.730469 139.914062 C 306.9375 137.679688 305.085938 135.496094 303.175781 133.367188 C 301.265625 131.234375 299.300781 129.15625 297.277344 127.132812 C 295.253906 125.109375 293.175781 123.140625 291.042969 121.230469 C 288.914062 119.320312 286.730469 117.472656 284.496094 115.679688 C 282.265625 113.890625 279.984375 112.160156 277.660156 110.496094 C 275.332031 108.828125 272.960938 107.226562 270.546875 105.691406 C 268.132812 104.152344 265.675781 102.683594 263.179688 101.28125 C 260.6875 99.878906 258.15625 98.546875 255.585938 97.28125 C 253.019531 96.015625 250.417969 94.824219 247.785156 93.703125 C 245.152344 92.578125 242.492188 91.53125 239.800781 90.554688 C 237.109375 89.578125 234.394531 88.675781 231.65625 87.847656 C 228.914062 87.019531 226.15625 86.265625 223.375 85.589844 C 220.59375 84.914062 217.796875 84.3125 214.980469 83.789062 C 212.167969 83.261719 209.34375 82.816406 206.503906 82.445312 C 203.667969 82.078125 200.820312 81.785156 197.964844 81.570312 C 195.113281 81.355469 192.253906 81.21875 189.390625 81.164062 C 186.53125 81.105469 183.667969 81.125 180.808594 81.222656 C 177.949219 81.320312 175.09375 81.5 172.242188 81.753906 Z M 186.5625 293.78125 C 184.730469 293.78125 182.902344 293.691406 181.078125 293.511719 C 179.257812 293.332031 177.445312 293.066406 175.648438 292.707031 C 173.851562 292.351562 172.078125 291.90625 170.324219 291.375 C 168.570312 290.84375 166.847656 290.226562 165.15625 289.523438 C 163.464844 288.824219 161.808594 288.042969 160.195312 287.179688 C 158.578125 286.3125 157.007812 285.375 155.484375 284.355469 C 153.964844 283.339844 152.492188 282.25 151.078125 281.085938 C 149.660156 279.925781 148.304688 278.695312 147.011719 277.398438 C 145.714844 276.105469 144.484375 274.75 143.324219 273.332031 C 142.160156 271.917969 141.070312 270.445312 140.054688 268.921875 C 139.035156 267.402344 138.09375 265.832031 137.230469 264.214844 C 136.367188 262.601562 135.585938 260.945312 134.886719 259.253906 C 134.183594 257.5625 133.566406 255.839844 133.035156 254.085938 C 132.503906 252.332031 132.058594 250.558594 131.703125 248.761719 C 131.34375 246.964844 131.074219 245.152344 130.894531 243.332031 C 130.71875 241.507812 130.628906 239.679688 130.628906 237.847656 C 130.628906 236.015625 130.71875 234.1875 130.894531 232.367188 C 131.074219 230.542969 131.34375 228.734375 131.703125 226.9375 C 132.058594 225.140625 132.503906 223.363281 133.035156 221.609375 C 133.566406 219.859375 134.183594 218.136719 134.886719 216.441406 C 135.585938 214.75 136.367188 213.097656 137.230469 211.480469 C 138.09375 209.863281 139.035156 208.296875 140.054688 206.773438 C 141.070312 205.25 142.160156 203.78125 143.324219 202.363281 C 144.484375 200.949219 145.714844 199.589844 147.011719 198.296875 C 148.304688 197 149.660156 195.773438 151.078125 194.609375 C 152.492188 193.449219 153.964844 192.359375 155.484375 191.339844 C 157.007812 190.324219 158.578125 189.382812 160.195312 188.519531 C 161.808594 187.65625 163.464844 186.871094 165.15625 186.171875 C 166.847656 185.46875 168.570312 184.855469 170.324219 184.320312 C 172.078125 183.789062 173.851562 183.34375 175.648438 182.988281 C 177.445312 182.628906 179.257812 182.363281 181.078125 182.183594 C 182.902344 182.003906 184.730469 181.914062 186.5625 181.914062 C 188.394531 181.914062 190.222656 182.003906 192.042969 182.183594 C 193.867188 182.363281 195.675781 182.628906 197.472656 182.988281 C 199.269531 183.34375 201.046875 183.789062 202.796875 184.320312 C 204.550781 184.855469 206.273438 185.46875 207.96875 186.171875 C 209.660156 186.871094 211.3125 187.65625 212.929688 188.519531 C 214.542969 189.382812 216.113281 190.324219 217.636719 191.339844 C 219.160156 192.359375 220.628906 193.449219 222.046875 194.609375 C 223.460938 195.773438 224.816406 197 226.113281 198.296875 C 227.410156 199.589844 228.636719 200.949219 229.800781 202.363281 C 230.960938 203.78125 232.050781 205.25 233.070312 206.773438 C 234.085938 208.296875 235.027344 209.863281 235.890625 211.480469 C 236.753906 213.097656 237.539062 214.75 238.238281 216.441406 C 238.941406 218.136719 239.554688 219.859375 240.089844 221.609375 C 240.621094 223.363281 241.0625 225.140625 241.421875 226.9375 C 241.777344 228.734375 242.046875 230.542969 242.226562 232.367188 C 242.40625 234.1875 242.496094 236.015625 242.496094 237.847656 C 242.496094 239.679688 242.40625 241.507812 242.226562 243.332031 C 242.046875 245.152344 241.777344 246.964844 241.421875 248.761719 C 241.0625 250.558594 240.621094 252.332031 240.089844 254.085938 C 239.554688 255.839844 238.941406 257.5625 238.238281 259.253906 C 237.539062 260.945312 236.753906 262.601562 235.890625 264.214844 C 235.027344 265.832031 234.085938 267.402344 233.070312 268.921875 C 232.050781 270.445312 230.960938 271.917969 229.800781 273.332031 C 228.636719 274.75 227.410156 276.105469 226.113281 277.398438 C 224.816406 278.695312 223.460938 279.925781 222.046875 281.085938 C 220.628906 282.25 219.160156 283.339844 217.636719 284.355469 C 216.113281 285.375 214.542969 286.3125 212.929688 287.179688 C 211.3125 288.042969 209.660156 288.824219 207.96875 289.523438 C 206.273438 290.226562 204.550781 290.84375 202.796875 291.375 C 201.046875 291.90625 199.269531 292.351562 197.472656 292.707031 C 195.675781 293.066406 193.867188 293.332031 192.042969 293.511719 C 190.222656 293.691406 188.394531 293.78125 186.5625 293.78125 Z M 186.5625 293.78125 " fill-opacity="1" fill-rule="nonzero"/></g><g clip-path="url(#1587cf08e5)"><path fill="#313d48" d="M 186.261719 78.757812 C 272.960938 78.757812 343.273438 149.164062 343.273438 235.992188 C 343.273438 246.425781 342.253906 256.621094 340.3125 266.488281 C 308.25 260.175781 282.074219 253.03125 249.246094 239.960938 C 280.738281 257.089844 311.476562 266.300781 338.675781 273.863281 C 337.921875 276.902344 337.082031 279.910156 336.160156 282.875 C 310.246094 273.90625 280.796875 261.867188 262.203125 251.480469 C 255.753906 247.871094 250.640625 244.484375 247.484375 241.527344 C 244.761719 238.976562 243.582031 236.90625 244.457031 235.535156 L 244.460938 235.539062 C 244.761719 235.070312 245.289062 234.628906 246.074219 234.21875 L 247.027344 233.71875 C 259.03125 227.441406 307.839844 201.910156 311.285156 189.378906 C 312.179688 186.117188 310.710938 183.640625 305.984375 182.339844 C 277.414062 174.457031 237.539062 171.367188 196.484375 168.773438 C 151.242188 165.921875 89.144531 167.582031 53.460938 169.046875 C 87.445312 169.289062 137.429688 169.847656 177.703125 172.761719 C 208.261719 174.980469 237.574219 178.585938 263.117188 184.132812 C 267.203125 185.015625 268.949219 185.933594 268.738281 186.890625 C 267.503906 192.605469 235.207031 203.382812 194.191406 217.078125 C 140.066406 235.148438 70.949219 258.222656 36.441406 283.125 C 35.464844 280.003906 34.578125 276.839844 33.792969 273.644531 C 102.632812 236.101562 183.335938 219.820312 255.410156 191.441406 C 181.375 217.984375 105.644531 228.398438 31.957031 265.15625 C 30.183594 255.707031 29.253906 245.957031 29.253906 235.992188 C 29.253906 149.164062 99.5625 78.757812 186.261719 78.757812 Z M 207.617188 297.800781 C 189.789062 297.667969 167.472656 297.527344 149.640625 297.390625 C 150.472656 282.199219 158.660156 258.835938 172.042969 245.4375 L 189.734375 245.4375 C 187.285156 256.609375 191.453125 279.308594 207.617188 297.800781 Z M 177.3125 240.902344 C 179.996094 238.957031 182.847656 237.417969 185.851562 236.402344 C 191.289062 234.570312 197.410156 232.394531 203.921875 229.949219 L 213.753906 229.949219 C 207.078125 232.929688 200.371094 235.882812 193.671875 238.875 C 192.832031 239.25 192.101562 239.941406 191.472656 240.902344 Z M 213.746094 226.175781 C 220.566406 223.488281 227.640625 220.566406 234.6875 217.488281 L 240.695312 217.488281 C 234.566406 220.472656 228.382812 223.351562 222.15625 226.175781 Z M 240.628906 214.839844 C 259.753906 206.195312 278.074219 196.476562 289.820312 187.117188 C 293.996094 183.785156 280.839844 181.160156 255.144531 177.207031 C 282.914062 180.625 296.144531 184.011719 291.394531 187.535156 C 277.035156 198.183594 261.773438 206.941406 246.035156 214.839844 L 240.628906 214.839844 " fill-opacity="1" fill-rule="evenodd"/></g></svg>